<svg xmlns="http://www.w3.org/2000/svg" viewBox="-21.73082488767413 -21.73082488767413 143.46164977534826 152.1157742137189" xmlns:xlink="http://www.w3.org/1999/xlink" version="1.1"  ><rect width="100%" height="100%" x="-21.73082488767413" y="-21.73082488767413" fill="#FFFFFF" ></rect><g transform="translate(0.00008374959466698067 0) scale(0.002791653044635697)" id="containerlessSvgTemplate"><g fill="#000000"><path d="M337.04 2910.53L5757.91 0l5399.69 2861.92 23.05 11.18c223.39 108.34 329.73 159.91 334.12 315.59 1.65 10.8 2.49 21.85 2.49 33.1v2360.07l2192.38-1177.11 5399.69 2861.91 23.05 11.19c223.39 108.34 329.73 159.91 334.12 315.59 1.65 10.79 2.49 21.85 2.49 33.1v2615.13l2495.12-1339.66 5399.69 2861.91 23.05 11.19c223.39 108.34 329.73 159.91 334.12 315.59 1.65 10.8 2.49 21.85 2.49 33.1v2441.64l2338.23-1255.43 5399.69 2861.92 23.05 11.18c223.39 108.34 329.73 159.91 334.12 315.59 1.64 10.8 2.49 21.85 2.49 33.1v6071.63c-1919.51 1030.69-3839.09 2061.27-5758.63 3091.89l-2338.95-1255.81v2539.4c-1919.51 1030.69-3839.1 2061.23-5758.63 3091.88l-2495.85-1340.04v2782.2c-1919.51 1030.69-3839.1 2061.23-5758.63 3091.89l-2193.1-1177.5v2401.84c-1919.51 1030.69-3839.1 2061.23-5758.63 3091.89C3839.05 37890.49 1919.49 36859.88-.03 35829.18v-6054.64c0-52.89 18.78-101.4 50.03-139.22 34.34-57.94 102.17-92.93 202.21-144.52 22.27-11.48 48.37-24.94 84.82-44.52l2721.86-1461.4C2039.24 27437.43 1019.61 26889.96-.02 26342.46v-6054.65c0-52.88 18.78-101.39 50.03-139.21 34.34-57.94 102.17-92.93 202.21-144.53 22.27-11.48 48.37-24.94 84.82-44.51l1825.83-980.3L0 17817.94v-6054.65c0-52.86 18.75-101.35 49.98-139.15 34.33-57.99 102.17-92.97 202.26-144.59 22.27-11.48 48.37-24.94 84.82-44.51l1825.87-980.33L.01 9293.42V3238.76c0-52.86 18.75-101.34 49.98-139.15 34.33-57.99 102.17-92.97 202.26-144.59 22.27-11.48 48.37-24.95 84.82-44.52zm13592.03 25635.56v5445.88l5102.51-2739.6v-5445.88l-5102.51 2739.6zm-437.42 5445.88v-5445.88l-3039.28-1631.83-1977.32 1061.64 2682.55 1421.79 23.05 11.18c223.39 108.34 329.73 159.94 334.12 315.59 1.65 10.79 2.49 21.85 2.49 33.1v3174.33l1974.39 1060.07zm5977.34-5756.67l2277.13 1222.62v-5445.88l-5102.51-2739.6v2502.14l2465.72 1306.87 23.05 11.18c223.39 108.34 329.72 159.94 334.12 315.59 1.65 10.79 2.49 21.85 2.49 33.1v2793.97zm-3124.18-4125.16a218.023 218.023 0 0 1-43.03-22.81l-2590.71-1373.12-2193.82 1177.89v2450.37l-603.5 324.05 2796.6 1501.53 5112.08-2744.74-2477.63-1313.18zm-138.62-567.39v-2618.47c0-52.89 18.78-101.4 50.03-139.21 34.34-57.94 102.16-92.93 202.21-144.53 22.26-11.48 48.37-24.94 84.81-44.51l2067.02-1109.81-2404.07-1290.77v-2745.42l-2495.83 1340.05-2193.1-1177.5v2205.39c-713.45 383.09-1426.91 766.15-2140.37 1149.21l1780.71 943.8 23.05 11.18c223.39 108.34 329.73 159.94 334.12 315.59 1.65 10.79 2.49 21.85 2.49 33.1v3125.81l2192.38-1177.12 2496.55 1323.21zm-5126.35 231.87c-.46-8.2-.46-16.4 0-24.56V20636l-5102.51 2739.6v5445.88l4369.92-2346.26c1.31-.72 2.62-1.43 3.94-2.12l728.65-391.22v-2307.26zm7951.03 1644.27c.57-30.8-1.52-36.41-6.17-29.33 3.53 46.84 5.02 90.91 6.17 29.33zm3152.66 4039.03l5102.51-2739.6v-5445.88l-5102.51 2739.6v5445.88zm5539.93-5513.86l2120.24 1138.38v-5445.88l-5102.51-2739.6v2260.42l2622.62 1390.02 23.05 11.19c223.39 108.34 329.73 159.94 334.12 315.59 1.65 10.79 2.49 21.85 2.49 33.1v3036.78zm-3419.69-5018.52V16548.8c0-52.87 18.75-101.35 49.98-139.15 34.32-57.99 102.17-92.97 202.26-144.59 22.26-11.48 48.36-24.94 84.81-44.52l2645.23-1420.25v-2311.33l-5102.51 2739.6v2573.22l2120.24 1123.76zm-2557.65-1123.02v-2573.96l-5102.51-2739.61v5445.88l2428.04 1303.65 2674.47-1435.96zm219.43 377.65l-5079.26 2727.11 5078.54 2726.73 5112.08-2744.74-5111.36-2709.1zm5319.8 2704.67c.57-30.81-1.52-36.41-6.17-29.33 3.53 46.84 5.02 90.91 6.17 29.33zM5977.33 32862.32v5445.88l5102.51-2739.6v-5445.88l-5102.51 2739.59zm-437.42 5445.88v-5445.88L437.4 30122.72v5445.88l5102.51 2739.6zM8012.1 28224.45c-751.17 403.3-1502.33 806.6-2253.48 1209.91l-2238.34-1201.74-2840.2 1524.94 5078.54 2726.72 5112.08-2744.74-2858.6-1515.1zm3067.04 1510.67c.57-30.81-1.52-36.41-6.17-29.33 3.53 46.84 5.02 90.91 6.17 29.33zm-5539.23-913.64V23375.6L437.4 20636v5445.88l5102.51 2739.6zm3374.03-9605.76c-1051.77 564.7-2103.55 1129.39-3155.31 1694.12-1044.8-560.93-2089.59-1121.87-3134.38-1682.83L680.08 20270.85l5078.54 2726.73 5112.08-2744.74-1956.76-1037.11zm2165.2 1032.68c.57-30.8-1.52-36.41-6.17-29.33 3.53 46.84 5.02 90.91 6.17 29.33zm-5101.81-5397.32v5445.88l5102.51-2739.6v-2179.64L8038.16 13744.6l-2060.82 1106.49zm-437.42 5445.88v-5445.88L437.4 12111.47v5445.88l5102.51 2739.6zm2411.8-7001.41v-2087.73l-2193.08 1177.5-3134.33-1682.87-1944.21 1043.87 5078.54 2726.72 2193.09-1177.5zm5977.35-2564.24v5445.88l2277.13-1222.62V12140.8c0-52.86 18.75-101.34 49.98-139.15 34.33-57.99 102.17-92.97 202.26-144.59 22.26-11.48 48.37-24.94 84.81-44.51l2488.34-1336.02V7991.71l-5102.51 2739.6zm-437.42 5445.88v-5445.88L8389.13 7991.7v5445.88l5102.51 2739.6zm16789.48 8905.27l5102.51-2739.6v-5445.88l-5102.51 2739.59v5445.88zm-217.99-11277.76l-5079.25 2727.12 5078.54 2726.72 5112.08-2744.74-5111.37-2709.11zm5319.8 2704.68c.57-30.82-1.52-36.43-6.16-29.34 3.53 46.83 5.02 90.9 6.16 29.34zm-16002.21-5724.85a218.299 218.299 0 0 1-56.41 30.28l-2438.02 1309 5078.54 2726.73 5112.08-2744.74-5111.36-2709.1-2584.83 1387.83zm7904.63 1316.84c.57-30.82-1.52-36.42-6.17-29.34 3.53 46.83 5.02 90.9 6.17 29.34zM8001.69 7504.39c34.32-57.99 102.17-92.97 202.26-144.59 22.26-11.48 48.37-24.94 84.81-44.51l2791.08-1498.56V3586.96l-5102.51 2739.6v5445.88l1974.38-1060.08V7643.54c0-52.86 18.75-101.35 49.98-139.15zm5709.38-2604.95L8631.81 7626.55l5078.54 2726.73 5112.08-2744.74-5111.36-2709.1zm5319.8 2704.67c.57-30.82-1.52-36.42-6.17-29.34 3.53 46.83 5.02 90.9 6.17 29.34zM5539.91 6326.56L437.4 3586.95v5445.88l5102.51 2739.61V6326.56zm219.43-5831.88L680.08 3221.79l5078.54 2726.73 5112.08-2744.74-5111.36-2709.1zm5319.8 2704.67c.57-30.82-1.52-36.42-6.17-29.33 3.53 46.83 5.02 90.9 6.17 29.33z" fill-rule="nonzero"></path></g></g></svg>