<svg xmlns="http://www.w3.org/2000/svg" viewBox="-20 -20 140 137.74561351384284" xmlns:xlink="http://www.w3.org/1999/xlink" version="1.1"  ><rect width="100%" height="100%" x="-20" y="-20" fill="#FFFFFF" ></rect><g transform="translate(50 64.34672790256784) scale(0.3339888561127499)" id="verticalContainerlessSvgTemplate"><g fill="#000000"><g transform="translate(-155.5937193326791 76.64376840039255) scale(1.3629920401264854)" fill="#000000"><g id="line1" fill="#000000"><path d="M11.664-1.152C14.400-0.144 17.256 0.360 20.232 0.360C23.208 0.360 25.872-0.120 28.224-1.080C30.576-2.040 32.412-3.384 33.732-5.112C35.052-6.840 35.712-8.808 35.712-11.016C35.712-13.896 34.608-16.308 32.400-18.252C30.192-20.196 26.520-21.600 21.384-22.464C17.592-23.088 14.952-23.916 13.464-24.948C11.976-25.980 11.232-27.360 11.232-29.088C11.232-30.720 12.024-32.076 13.608-33.156C15.192-34.236 17.304-34.776 19.944-34.776C24.024-34.776 27.240-33.432 29.592-30.744C30.264-30.024 31.104-29.664 32.112-29.664C32.688-29.664 33.144-29.784 33.480-30.024C34.248-30.504 34.632-31.152 34.632-31.968C34.632-32.448 34.440-33.000 34.056-33.624C32.616-35.544 30.720-37.044 28.368-38.124C26.016-39.204 23.256-39.744 20.088-39.744C16.008-39.744 12.612-38.784 9.900-36.864C7.188-34.944 5.832-32.232 5.832-28.728C5.832-26.040 6.996-23.748 9.324-21.852C11.652-19.956 15.168-18.624 19.872-17.856C23.520-17.280 26.184-16.416 27.864-15.264C29.544-14.112 30.384-12.672 30.384-10.944C30.336-9.072 29.472-7.560 27.792-6.408C26.112-5.256 23.592-4.680 20.232-4.680C17.928-4.680 15.828-5.040 13.932-5.760C12.036-6.480 10.512-7.512 9.360-8.856C8.784-9.528 8.088-9.864 7.272-9.864C6.648-9.864 6.048-9.648 5.472-9.216C4.704-8.592 4.320-7.872 4.320-7.056C4.320-6.528 4.560-5.976 5.040-5.400C6.720-3.576 8.928-2.160 11.664-1.152Z"></path><path d="M81.576-37.080C81.576-38.040 81.024-38.736 79.920-39.168C79.488-39.360 79.056-39.456 78.624-39.456C77.664-39.456 76.944-38.928 76.464-37.872L63.072-8.352L49.032-37.944C48.600-38.952 47.880-39.456 46.872-39.456C46.392-39.456 45.960-39.360 45.576-39.168C44.520-38.736 43.992-38.016 43.992-37.008C43.992-36.528 44.088-36.096 44.280-35.712L60.336-2.448L60.336-2.376L53.208 13.392C53.016 13.824 52.920 14.256 52.920 14.688C52.920 15.696 53.472 16.416 54.576 16.848C54.960 17.040 55.392 17.136 55.872 17.136C56.832 17.136 57.528 16.584 57.960 15.480L81.288-35.784C81.480-36.216 81.576-36.648 81.576-37.080Z"></path><path d="M120.204-37.656C117.492-39.096 114.432-39.816 111.024-39.816C108.384-39.816 105.936-39.312 103.680-38.304C101.424-37.296 99.504-35.904 97.920-34.128L97.920-36.576C97.920-37.392 97.668-38.064 97.164-38.592C96.660-39.120 96.000-39.384 95.184-39.384C94.368-39.384 93.696-39.120 93.168-38.592C92.640-38.064 92.376-37.392 92.376-36.576L92.376-2.736C92.376-1.920 92.640-1.260 93.168-0.756C93.696-0.252 94.368 0 95.184 0C96.000 0 96.660-0.252 97.164-0.756C97.668-1.260 97.920-1.920 97.920-2.736L97.920-24.048C97.920-26.016 98.472-27.804 99.576-29.412C100.680-31.020 102.180-32.280 104.076-33.192C105.972-34.104 108.096-34.560 110.448-34.560C114.288-34.560 117.396-33.444 119.772-31.212C122.148-28.980 123.336-25.728 123.336-21.456L123.336-2.736C123.336-1.968 123.600-1.320 124.128-0.792C124.656-0.264 125.328 0 126.144 0C126.912 0 127.560-0.264 128.088-0.792C128.616-1.320 128.880-1.968 128.880-2.736L128.880-21.456C128.880-25.296 128.112-28.596 126.576-31.356C125.040-34.116 122.916-36.216 120.204-37.656Z"></path><path d="M182.880-36.648C182.880-36.936 182.856-37.152 182.808-37.296L182.808-53.424C182.808-54.240 182.556-54.912 182.052-55.440C181.548-55.968 180.888-56.232 180.072-56.232C179.256-56.232 178.584-55.968 178.056-55.440C177.528-54.912 177.264-54.240 177.264-53.424L177.264-32.328C175.584-34.632 173.448-36.444 170.856-37.764C168.264-39.084 165.408-39.744 162.288-39.744C158.640-39.744 155.340-38.868 152.388-37.116C149.436-35.364 147.108-32.964 145.404-29.916C143.700-26.868 142.848-23.472 142.848-19.728C142.848-15.984 143.724-12.576 145.476-9.504C147.228-6.432 149.628-4.020 152.676-2.268C155.724-0.516 159.120 0.360 162.864 0.360C166.608 0.360 170.004-0.516 173.052-2.268C176.100-4.020 178.500-6.432 180.252-9.504C182.004-12.576 182.880-15.984 182.880-19.728ZM170.280-6.660C168.072-5.340 165.600-4.680 162.864-4.680C160.128-4.680 157.644-5.340 155.412-6.660C153.180-7.980 151.428-9.780 150.156-12.060C148.884-14.340 148.248-16.896 148.248-19.728C148.248-22.560 148.884-25.116 150.156-27.396C151.428-29.676 153.180-31.464 155.412-32.760C157.644-34.056 160.128-34.704 162.864-34.704C166.656-34.704 169.884-33.504 172.548-31.104C175.212-28.704 176.784-25.632 177.264-21.888C177.264-21.744 177.288-21.624 177.336-21.528C177.384-21.144 177.408-20.544 177.408-19.728C177.408-16.896 176.772-14.340 175.500-12.060C174.228-9.780 172.488-7.980 170.280-6.660Z"></path><path d="M222.228-39.024C221.052-39.552 219.456-39.816 217.440-39.816C214.944-39.816 212.616-39.264 210.456-38.160C208.296-37.056 206.520-35.496 205.128-33.480L205.128-36.648C205.128-37.512 204.888-38.184 204.408-38.664C203.928-39.144 203.256-39.384 202.392-39.384C201.528-39.384 200.856-39.144 200.376-38.664C199.896-38.184 199.656-37.512 199.656-36.648L199.656-2.736C199.656-1.872 199.896-1.200 200.376-0.720C200.856-0.240 201.528 0 202.392 0C203.256 0 203.928-0.240 204.408-0.720C204.888-1.200 205.128-1.872 205.128-2.736L205.128-24.264C205.128-27.336 206.268-29.832 208.548-31.752C210.828-33.672 213.768-34.632 217.368-34.632C218.136-34.632 218.712-34.608 219.096-34.560C220.152-34.464 220.896-34.416 221.328-34.416C222.048-34.416 222.612-34.536 223.020-34.776C223.428-35.016 223.728-35.472 223.920-36.144C223.968-36.288 223.992-36.504 223.992-36.792C223.992-37.752 223.404-38.496 222.228-39.024Z"></path></g></g><g transform="translate(-74.85267148183841 -192.66130209100535) scale(0.004179260765055697)" id="logomark"><g fill="#000000"><path d="M337.04 2910.53L5757.91 0l5399.69 2861.92 23.05 11.18c223.39 108.34 329.73 159.91 334.12 315.59 1.65 10.8 2.49 21.85 2.49 33.1v2360.07l2192.38-1177.11 5399.69 2861.91 23.05 11.19c223.39 108.34 329.73 159.91 334.12 315.59 1.65 10.79 2.49 21.85 2.49 33.1v2615.13l2495.12-1339.66 5399.69 2861.91 23.05 11.19c223.39 108.34 329.73 159.91 334.12 315.59 1.65 10.8 2.49 21.85 2.49 33.1v2441.64l2338.23-1255.43 5399.69 2861.92 23.05 11.18c223.39 108.34 329.73 159.91 334.12 315.59 1.64 10.8 2.49 21.85 2.49 33.1v6071.63c-1919.51 1030.69-3839.09 2061.27-5758.63 3091.89l-2338.95-1255.81v2539.4c-1919.51 1030.69-3839.1 2061.23-5758.63 3091.88l-2495.85-1340.04v2782.2c-1919.51 1030.69-3839.1 2061.23-5758.63 3091.89l-2193.1-1177.5v2401.84c-1919.51 1030.69-3839.1 2061.23-5758.63 3091.89C3839.05 37890.49 1919.49 36859.88-.03 35829.18v-6054.64c0-52.89 18.78-101.4 50.03-139.22 34.34-57.94 102.17-92.93 202.21-144.52 22.27-11.48 48.37-24.94 84.82-44.52l2721.86-1461.4C2039.24 27437.43 1019.61 26889.96-.02 26342.46v-6054.65c0-52.88 18.78-101.39 50.03-139.21 34.34-57.94 102.17-92.93 202.21-144.53 22.27-11.48 48.37-24.94 84.82-44.51l1825.83-980.3L0 17817.94v-6054.65c0-52.86 18.75-101.35 49.98-139.15 34.33-57.99 102.17-92.97 202.26-144.59 22.27-11.48 48.37-24.94 84.82-44.51l1825.87-980.33L.01 9293.42V3238.76c0-52.86 18.75-101.34 49.98-139.15 34.33-57.99 102.17-92.97 202.26-144.59 22.27-11.48 48.37-24.95 84.82-44.52zm13592.03 25635.56v5445.88l5102.51-2739.6v-5445.88l-5102.51 2739.6zm-437.42 5445.88v-5445.88l-3039.28-1631.83-1977.32 1061.64 2682.55 1421.79 23.05 11.18c223.39 108.34 329.73 159.94 334.12 315.59 1.65 10.79 2.49 21.85 2.49 33.1v3174.33l1974.39 1060.07zm5977.34-5756.67l2277.13 1222.62v-5445.88l-5102.51-2739.6v2502.14l2465.72 1306.87 23.05 11.18c223.39 108.34 329.72 159.94 334.12 315.59 1.65 10.79 2.49 21.85 2.49 33.1v2793.97zm-3124.18-4125.16a218.023 218.023 0 0 1-43.03-22.81l-2590.71-1373.12-2193.82 1177.89v2450.37l-603.5 324.05 2796.6 1501.53 5112.08-2744.74-2477.63-1313.18zm-138.62-567.39v-2618.47c0-52.89 18.78-101.4 50.03-139.21 34.34-57.94 102.16-92.93 202.21-144.53 22.26-11.48 48.37-24.94 84.81-44.51l2067.02-1109.81-2404.07-1290.77v-2745.42l-2495.83 1340.05-2193.1-1177.5v2205.39c-713.45 383.09-1426.91 766.15-2140.37 1149.21l1780.71 943.8 23.05 11.18c223.39 108.34 329.73 159.94 334.12 315.59 1.65 10.79 2.49 21.85 2.49 33.1v3125.81l2192.38-1177.12 2496.55 1323.21zm-5126.35 231.87c-.46-8.2-.46-16.4 0-24.56V20636l-5102.51 2739.6v5445.88l4369.92-2346.26c1.31-.72 2.62-1.43 3.94-2.12l728.65-391.22v-2307.26zm7951.03 1644.27c.57-30.8-1.52-36.41-6.17-29.33 3.53 46.84 5.02 90.91 6.17 29.33zm3152.66 4039.03l5102.51-2739.6v-5445.88l-5102.51 2739.6v5445.88zm5539.93-5513.86l2120.24 1138.38v-5445.88l-5102.51-2739.6v2260.42l2622.62 1390.02 23.05 11.19c223.39 108.34 329.73 159.94 334.12 315.59 1.65 10.79 2.49 21.85 2.49 33.1v3036.78zm-3419.69-5018.52V16548.8c0-52.87 18.75-101.35 49.98-139.15 34.32-57.99 102.17-92.97 202.26-144.59 22.26-11.48 48.36-24.94 84.81-44.52l2645.23-1420.25v-2311.33l-5102.51 2739.6v2573.22l2120.24 1123.76zm-2557.65-1123.02v-2573.96l-5102.51-2739.61v5445.88l2428.04 1303.65 2674.47-1435.96zm219.43 377.65l-5079.26 2727.11 5078.54 2726.73 5112.08-2744.74-5111.36-2709.1zm5319.8 2704.67c.57-30.81-1.52-36.41-6.17-29.33 3.53 46.84 5.02 90.91 6.17 29.33zM5977.33 32862.32v5445.88l5102.51-2739.6v-5445.88l-5102.51 2739.59zm-437.42 5445.88v-5445.88L437.4 30122.72v5445.88l5102.51 2739.6zM8012.1 28224.45c-751.17 403.3-1502.33 806.6-2253.48 1209.91l-2238.34-1201.74-2840.2 1524.94 5078.54 2726.72 5112.08-2744.74-2858.6-1515.1zm3067.04 1510.67c.57-30.81-1.52-36.41-6.17-29.33 3.53 46.84 5.02 90.91 6.17 29.33zm-5539.23-913.64V23375.6L437.4 20636v5445.88l5102.51 2739.6zm3374.03-9605.76c-1051.77 564.7-2103.55 1129.39-3155.31 1694.12-1044.8-560.93-2089.59-1121.87-3134.38-1682.83L680.08 20270.85l5078.54 2726.73 5112.08-2744.74-1956.76-1037.11zm2165.2 1032.68c.57-30.8-1.52-36.41-6.17-29.33 3.53 46.84 5.02 90.91 6.17 29.33zm-5101.81-5397.32v5445.88l5102.51-2739.6v-2179.64L8038.16 13744.6l-2060.82 1106.49zm-437.42 5445.88v-5445.88L437.4 12111.47v5445.88l5102.51 2739.6zm2411.8-7001.41v-2087.73l-2193.08 1177.5-3134.33-1682.87-1944.21 1043.87 5078.54 2726.72 2193.09-1177.5zm5977.35-2564.24v5445.88l2277.13-1222.62V12140.8c0-52.86 18.75-101.34 49.98-139.15 34.33-57.99 102.17-92.97 202.26-144.59 22.26-11.48 48.37-24.94 84.81-44.51l2488.34-1336.02V7991.71l-5102.51 2739.6zm-437.42 5445.88v-5445.88L8389.13 7991.7v5445.88l5102.51 2739.6zm16789.48 8905.27l5102.51-2739.6v-5445.88l-5102.51 2739.59v5445.88zm-217.99-11277.76l-5079.25 2727.12 5078.54 2726.72 5112.08-2744.74-5111.37-2709.11zm5319.8 2704.68c.57-30.82-1.52-36.43-6.16-29.34 3.53 46.83 5.02 90.9 6.16 29.34zm-16002.21-5724.85a218.299 218.299 0 0 1-56.41 30.28l-2438.02 1309 5078.54 2726.73 5112.08-2744.74-5111.36-2709.1-2584.83 1387.83zm7904.63 1316.84c.57-30.82-1.52-36.42-6.17-29.34 3.53 46.83 5.02 90.9 6.17 29.34zM8001.69 7504.39c34.32-57.99 102.17-92.97 202.26-144.59 22.26-11.48 48.37-24.94 84.81-44.51l2791.08-1498.56V3586.96l-5102.51 2739.6v5445.88l1974.38-1060.08V7643.54c0-52.86 18.75-101.35 49.98-139.15zm5709.38-2604.95L8631.81 7626.55l5078.54 2726.73 5112.08-2744.74-5111.36-2709.1zm5319.8 2704.67c.57-30.82-1.52-36.42-6.17-29.34 3.53 46.83 5.02 90.9 6.17 29.34zM5539.91 6326.56L437.4 3586.95v5445.88l5102.51 2739.61V6326.56zm219.43-5831.88L680.08 3221.79l5078.54 2726.73 5112.08-2744.74-5111.36-2709.1zm5319.8 2704.67c.57-30.82-1.52-36.42-6.17-29.33 3.53 46.83 5.02 90.9 6.17 29.33z" fill-rule="nonzero"></path></g></g></g></g></svg>